<svg xmlns="http://www.w3.org/2000/svg" viewBox="0 0 157.84 67.45"><defs><style>.cls-1{isolation:isolate;}.cls-2{fill:#707070;}</style></defs><title>Asset 1</title><g id="Layer_2" data-name="Layer 2"><g id="Layer_1-2" data-name="Layer 1"><g id="DM3K" class="cls-1"><g class="cls-1"><path class="cls-2" d="M19.88,0a19.86,19.86,0,0,1,6.93,1.19,15.08,15.08,0,0,1,5.57,3.56,16.61,16.61,0,0,1,3.67,5.94,24.11,24.11,0,0,1,1.32,8.37,26.75,26.75,0,0,1-1.08,7.78A17,17,0,0,1,33,33a15.19,15.19,0,0,1-5.45,4.08,18.44,18.44,0,0,1-7.69,1.49H3.24V0Zm-.6,31.43a10.88,10.88,0,0,0,3.57-.6,7.74,7.74,0,0,0,3.07-2,9.88,9.88,0,0,0,2.16-3.59,15.75,15.75,0,0,0,.81-5.4,22.88,22.88,0,0,0-.56-5.26,10.49,10.49,0,0,0-1.87-4A8.2,8.2,0,0,0,23,8a13.54,13.54,0,0,0-5.26-.89h-6v24.3Z"/><path class="cls-2" d="M55.19,0l9,26.51h.11L72.85,0H84.78V38.56H76.84V11.23h-.1L67.29,38.56H60.75L51.3,11.5h-.11V38.56H43.26V0Z"/><path class="cls-2" d="M103.47,16a8.37,8.37,0,0,0,2.62-.62,5,5,0,0,0,2-1.49,4,4,0,0,0,.79-2.59,4.51,4.51,0,0,0-1.62-3.73,5.83,5.83,0,0,0-3.73-1.29,5.24,5.24,0,0,0-4.4,1.91,7.41,7.41,0,0,0-1.43,4.84H90.4a16,16,0,0,1,1-5.32A12.06,12.06,0,0,1,94.1,3.62,11.88,11.88,0,0,1,98.17.94a14.45,14.45,0,0,1,5.3-.94A15.78,15.78,0,0,1,108,.67a13,13,0,0,1,4.08,2A10.88,10.88,0,0,1,115,6a8.71,8.71,0,0,1,1.14,4.49,8.91,8.91,0,0,1-1.33,4.86,6.65,6.65,0,0,1-4,2.86v.11a8.19,8.19,0,0,1,4.92,3,8.85,8.85,0,0,1,1.78,5.56,11.69,11.69,0,0,1-1.16,5.29,11.54,11.54,0,0,1-3.11,3.89,13.56,13.56,0,0,1-4.48,2.38,17.26,17.26,0,0,1-5.29.81,17.47,17.47,0,0,1-5.8-.92,12.1,12.1,0,0,1-4.46-2.67,11.77,11.77,0,0,1-2.83-4.3,15,15,0,0,1-1-5.83h7.29a11,11,0,0,0,.49,2.89,7,7,0,0,0,1.24,2.38,6,6,0,0,0,2,1.59,6.48,6.48,0,0,0,2.89.59,6.35,6.35,0,0,0,4.38-1.59,5.56,5.56,0,0,0,1.78-4.35,5.47,5.47,0,0,0-.84-3.29,4.86,4.86,0,0,0-2.13-1.65,8.92,8.92,0,0,0-2.84-.59c-1-.06-2-.08-2.94-.08V16A16.73,16.73,0,0,0,103.47,16Z"/><path class="cls-2" d="M130.74,0V16L145.8,0h10.59L141.32,15.23l16.52,23.33H147.21L135.6,21.22l-4.86,4.92V38.56h-8.48V0Z"/></g></g><g id="Decision_Support_System" data-name="Decision Support System" class="cls-1"><g class="cls-1"><path class="cls-2" d="M3.43,54.56A5,5,0,0,1,7,55.74a4.69,4.69,0,0,1,1.24,3.58A8,8,0,0,1,8,61.55a4,4,0,0,1-.87,1.64,3.88,3.88,0,0,1-1.49,1,6.11,6.11,0,0,1-2.16.35H0v-10Zm.11,8.88c.15,0,.34,0,.56,0a3,3,0,0,0,.72-.17,3.31,3.31,0,0,0,.75-.38,2.73,2.73,0,0,0,.66-.69,3.59,3.59,0,0,0,.48-1.08A5.6,5.6,0,0,0,6.9,59.5a7,7,0,0,0-.17-1.6,3.17,3.17,0,0,0-.58-1.21,2.46,2.46,0,0,0-1-.75,4.11,4.11,0,0,0-1.55-.26H1.33v7.76Z"/><path class="cls-2" d="M14.78,64.09a3.28,3.28,0,0,1-2,.62,3.62,3.62,0,0,1-1.5-.28,3.06,3.06,0,0,1-1.08-.78,3.43,3.43,0,0,1-.65-1.21,6,6,0,0,1-.24-1.52,4.37,4.37,0,0,1,.25-1.52,3.66,3.66,0,0,1,.71-1.19,3.25,3.25,0,0,1,1.08-.78,3.21,3.21,0,0,1,1.36-.28,2.92,2.92,0,0,1,1.6.4,3,3,0,0,1,1,1,4,4,0,0,1,.54,1.35A6.09,6.09,0,0,1,16,61.29H10.53a3,3,0,0,0,.11.91,2,2,0,0,0,.41.75,1.92,1.92,0,0,0,.71.53,2.48,2.48,0,0,0,1,.19A2,2,0,0,0,14,63.32a1.66,1.66,0,0,0,.64-1.06h1.17A2.81,2.81,0,0,1,14.78,64.09Zm-.28-4.64a2,2,0,0,0-.44-.66,2.06,2.06,0,0,0-.64-.43,2.21,2.21,0,0,0-1.65,0,2.08,2.08,0,0,0-.64.44,2.13,2.13,0,0,0-.42.65,2.6,2.6,0,0,0-.18.79h4.16A2.61,2.61,0,0,0,14.5,59.45Z"/><path class="cls-2" d="M21.5,58.58a1.8,1.8,0,0,0-1.2-.38,2.21,2.21,0,0,0-1.08.24,1.91,1.91,0,0,0-.69.63,2.59,2.59,0,0,0-.37.9,4.78,4.78,0,0,0,0,2,2.48,2.48,0,0,0,.38.84,1.79,1.79,0,0,0,.65.6,2,2,0,0,0,1,.22,1.93,1.93,0,0,0,1.38-.46,2.12,2.12,0,0,0,.61-1.3h1.22a3.34,3.34,0,0,1-1,2.07,3.1,3.1,0,0,1-2.19.73,3.73,3.73,0,0,1-1.46-.27,2.8,2.8,0,0,1-1.06-.75A3.34,3.34,0,0,1,17,62.52,5,5,0,0,1,16.79,61,5.32,5.32,0,0,1,17,59.51a3.58,3.58,0,0,1,.63-1.23,3,3,0,0,1,1.07-.83,3.52,3.52,0,0,1,1.5-.3,4.34,4.34,0,0,1,1.16.15,2.78,2.78,0,0,1,.95.45,2.58,2.58,0,0,1,1,1.89H22.09A1.77,1.77,0,0,0,21.5,58.58Z"/><path class="cls-2" d="M24.77,56V54.56H26V56ZM26,57.32v7.24H24.77V57.32Z"/><path class="cls-2" d="M28.71,62.94a1.29,1.29,0,0,0,.44.43,1.85,1.85,0,0,0,.62.23,3.29,3.29,0,0,0,.71.07,4.18,4.18,0,0,0,.59,0,2.42,2.42,0,0,0,.56-.15,1.1,1.1,0,0,0,.43-.33.9.9,0,0,0,.17-.55.79.79,0,0,0-.35-.7,3.11,3.11,0,0,0-.88-.39,10.7,10.7,0,0,0-1.14-.26,6.33,6.33,0,0,1-1.14-.34,2.4,2.4,0,0,1-.87-.61,1.55,1.55,0,0,1-.35-1.09,1.75,1.75,0,0,1,.24-.94,2,2,0,0,1,.63-.64,3.07,3.07,0,0,1,.87-.36,4,4,0,0,1,1-.12,5.66,5.66,0,0,1,1.13.1,2.69,2.69,0,0,1,.92.37,1.89,1.89,0,0,1,.64.7,2.81,2.81,0,0,1,.28,1.1H32a1.11,1.11,0,0,0-.19-.58,1.06,1.06,0,0,0-.39-.37,1.58,1.58,0,0,0-.52-.21,2.86,2.86,0,0,0-.58-.06,3.27,3.27,0,0,0-.54,0,1.83,1.83,0,0,0-.5.15.92.92,0,0,0-.36.28.67.67,0,0,0-.14.45.66.66,0,0,0,.21.51,1.71,1.71,0,0,0,.56.34,4.46,4.46,0,0,0,.75.22l.84.19c.3.07.59.15.88.24a2.91,2.91,0,0,1,.75.37,1.83,1.83,0,0,1,.53.58,1.7,1.7,0,0,1,.21.87,1.94,1.94,0,0,1-.28,1.09,2.07,2.07,0,0,1-.71.7,2.86,2.86,0,0,1-1,.37,6,6,0,0,1-1.1.11,4.77,4.77,0,0,1-1.15-.13,2.81,2.81,0,0,1-1-.41,2.11,2.11,0,0,1-.67-.75,2.67,2.67,0,0,1-.28-1.15h1.19A1.35,1.35,0,0,0,28.71,62.94Z"/><path class="cls-2" d="M34.87,56V54.56h1.19V56Zm1.19,1.3v7.24H34.87V57.32Z"/><path class="cls-2" d="M37.74,59.45a3.38,3.38,0,0,1,.68-1.2,3.12,3.12,0,0,1,1.1-.81,4.1,4.1,0,0,1,3,0,3.21,3.21,0,0,1,1.1.81,3.36,3.36,0,0,1,.67,1.2,4.84,4.84,0,0,1,.23,1.49,4.75,4.75,0,0,1-.23,1.49,3.4,3.4,0,0,1-.67,1.19,3,3,0,0,1-1.1.8,4.1,4.1,0,0,1-3,0,2.87,2.87,0,0,1-1.1-.8,3.42,3.42,0,0,1-.68-1.19,4.75,4.75,0,0,1-.22-1.49A4.84,4.84,0,0,1,37.74,59.45ZM39,62.11a2.48,2.48,0,0,0,.49.86,2,2,0,0,0,.72.52,2.15,2.15,0,0,0,.87.18,2.2,2.2,0,0,0,.88-.18,2.14,2.14,0,0,0,.72-.52,2.47,2.47,0,0,0,.48-.86,3.51,3.51,0,0,0,.18-1.17,3.55,3.55,0,0,0-.18-1.17,2.56,2.56,0,0,0-.48-.86,2.17,2.17,0,0,0-.72-.53A2.2,2.2,0,0,0,41,58.2a2.15,2.15,0,0,0-.87.18,2,2,0,0,0-.72.53,2.58,2.58,0,0,0-.49.86,3.84,3.84,0,0,0-.17,1.17A3.79,3.79,0,0,0,39,62.11Z"/><path class="cls-2" d="M47.07,57.32v1.15h0a2.49,2.49,0,0,1,2.35-1.32,3,3,0,0,1,1.19.2,2.06,2.06,0,0,1,.77.54,2.09,2.09,0,0,1,.41.83,4.52,4.52,0,0,1,.12,1.08v4.76H50.75v-4.9a1.35,1.35,0,0,0-1.47-1.46,2.52,2.52,0,0,0-1,.17,1.85,1.85,0,0,0-.66.47,2.12,2.12,0,0,0-.4.72,2.94,2.94,0,0,0-.13.91v4.09H46V57.32Z"/><path class="cls-2" d="M62.82,55.92a2.83,2.83,0,0,0-1.7-.48,3.75,3.75,0,0,0-.82.09,1.9,1.9,0,0,0-.72.28,1.49,1.49,0,0,0-.51.52,1.68,1.68,0,0,0-.19.82,1,1,0,0,0,.28.75,2,2,0,0,0,.72.47,6.62,6.62,0,0,0,1,.3c.39.08.78.16,1.17.26a11.22,11.22,0,0,1,1.17.33,3.54,3.54,0,0,1,1,.51,2.37,2.37,0,0,1,.73.81,2.86,2.86,0,0,1-.09,2.6,3,3,0,0,1-.91.92,4,4,0,0,1-1.26.52,5.89,5.89,0,0,1-1.37.16,5.82,5.82,0,0,1-1.59-.21,3.86,3.86,0,0,1-1.32-.64,3,3,0,0,1-.9-1.09,3.49,3.49,0,0,1-.32-1.57H58.5a2.27,2.27,0,0,0,.25,1.08,2.32,2.32,0,0,0,.64.75,2.61,2.61,0,0,0,.94.43,3.93,3.93,0,0,0,1.09.14,4.56,4.56,0,0,0,.9-.08,2.66,2.66,0,0,0,.82-.29A1.51,1.51,0,0,0,64,61.85a1.28,1.28,0,0,0-.27-.84,2,2,0,0,0-.73-.52,4.79,4.79,0,0,0-1-.33l-1.17-.26c-.39-.09-.78-.19-1.17-.31a4.19,4.19,0,0,1-1-.46,2.21,2.21,0,0,1-.72-.74,2.09,2.09,0,0,1-.28-1.14,2.7,2.7,0,0,1,.31-1.31,2.76,2.76,0,0,1,.82-.91,3.51,3.51,0,0,1,1.16-.53,5,5,0,0,1,1.34-.18,5.44,5.44,0,0,1,1.43.18,3.2,3.2,0,0,1,1.15.58,2.92,2.92,0,0,1,.79,1,3.63,3.63,0,0,1,.31,1.43H63.6A2.08,2.08,0,0,0,62.82,55.92Z"/><path class="cls-2" d="M71.57,64.56V63.41h0a2.35,2.35,0,0,1-1,1,2.87,2.87,0,0,1-1.38.32A3.12,3.12,0,0,1,68,64.52a1.91,1.91,0,0,1-.77-.54,2,2,0,0,1-.42-.83,4.45,4.45,0,0,1-.11-1.07V57.32h1.19v4.9a1.43,1.43,0,0,0,.39,1.06,1.46,1.46,0,0,0,1.08.39,2.47,2.47,0,0,0,.94-.16A1.83,1.83,0,0,0,71,63a2.09,2.09,0,0,0,.39-.72,2.93,2.93,0,0,0,.14-.9V57.32h1.19v7.24Z"/><path class="cls-2" d="M75.71,57.32v1h0a1.8,1.8,0,0,1,.92-.88,3.48,3.48,0,0,1,1.39-.27,3.17,3.17,0,0,1,1.46.31,2.92,2.92,0,0,1,1,.83,3.74,3.74,0,0,1,.62,1.21A5,5,0,0,1,81.38,61a5.24,5.24,0,0,1-.2,1.45,3.42,3.42,0,0,1-.62,1.2,3,3,0,0,1-1,.81,3.47,3.47,0,0,1-1.45.29,3.38,3.38,0,0,1-.6-.06,2.89,2.89,0,0,1-1.26-.52,2.07,2.07,0,0,1-.48-.54h0v3.72H74.52v-10ZM80,59.89a2.64,2.64,0,0,0-.41-.86,1.88,1.88,0,0,0-.7-.61,2.11,2.11,0,0,0-1-.22,2,2,0,0,0-1,.24,2.06,2.06,0,0,0-.69.62,2.79,2.79,0,0,0-.38.88,4.07,4.07,0,0,0-.12,1,4.4,4.4,0,0,0,.12,1,2.67,2.67,0,0,0,.4.87,2,2,0,0,0,.71.61,2.47,2.47,0,0,0,2.08,0,1.93,1.93,0,0,0,.67-.63,3.14,3.14,0,0,0,.36-.9,5.1,5.1,0,0,0,.11-1A3.62,3.62,0,0,0,80,59.89Z"/><path class="cls-2" d="M84,57.32v1h0a1.8,1.8,0,0,1,.92-.88,3.52,3.52,0,0,1,1.39-.27,3.17,3.17,0,0,1,1.46.31,2.92,2.92,0,0,1,1,.83,3.74,3.74,0,0,1,.62,1.21A5,5,0,0,1,89.68,61a5.24,5.24,0,0,1-.2,1.45,3.42,3.42,0,0,1-.62,1.2,3,3,0,0,1-1,.81,3.47,3.47,0,0,1-1.45.29,3.38,3.38,0,0,1-.6-.06,2.89,2.89,0,0,1-1.26-.52,2.07,2.07,0,0,1-.48-.54h0v3.72H82.82v-10Zm4.28,2.57a2.45,2.45,0,0,0-.41-.86,1.88,1.88,0,0,0-.7-.61,2.11,2.11,0,0,0-1-.22,2,2,0,0,0-1,.24,2.06,2.06,0,0,0-.69.62,2.79,2.79,0,0,0-.38.88,4.07,4.07,0,0,0-.12,1,3.93,3.93,0,0,0,.13,1,2.32,2.32,0,0,0,.4.87,1.88,1.88,0,0,0,.7.61,2.14,2.14,0,0,0,1,.23,2.12,2.12,0,0,0,1-.23,1.93,1.93,0,0,0,.67-.63,2.88,2.88,0,0,0,.36-.9,4.48,4.48,0,0,0,.11-1A3.62,3.62,0,0,0,88.29,59.89Z"/><path class="cls-2" d="M90.91,59.45a3.38,3.38,0,0,1,.68-1.2,3.21,3.21,0,0,1,1.1-.81,3.8,3.8,0,0,1,1.51-.29,3.75,3.75,0,0,1,1.52.29,3.23,3.23,0,0,1,1.77,2,4.84,4.84,0,0,1,.23,1.49,4.75,4.75,0,0,1-.23,1.49,3.25,3.25,0,0,1-.67,1.19,3,3,0,0,1-1.1.8,3.75,3.75,0,0,1-1.52.29,3.8,3.8,0,0,1-1.51-.29,3,3,0,0,1-1.1-.8,3.42,3.42,0,0,1-.68-1.19,5.06,5.06,0,0,1-.22-1.49A5.16,5.16,0,0,1,90.91,59.45Zm1.22,2.66a2.32,2.32,0,0,0,.48.86,2,2,0,0,0,.72.52,2.15,2.15,0,0,0,.87.18,2.2,2.2,0,0,0,.88-.18A2,2,0,0,0,95.8,63a2.32,2.32,0,0,0,.48-.86,3.51,3.51,0,0,0,.18-1.17,3.55,3.55,0,0,0-.18-1.17,2.4,2.4,0,0,0-.48-.86,2.07,2.07,0,0,0-.72-.53,2.2,2.2,0,0,0-.88-.18,2.15,2.15,0,0,0-.87.18,2,2,0,0,0-.72.53,2.4,2.4,0,0,0-.48.86A3.55,3.55,0,0,0,92,60.94,3.51,3.51,0,0,0,92.13,62.11Z"/><path class="cls-2" d="M100.2,57.32v1.52h0a3.29,3.29,0,0,1,1.07-1.3,2.65,2.65,0,0,1,1.59-.39v1.26a3.13,3.13,0,0,0-1.21.2,2,2,0,0,0-.82.57,2.39,2.39,0,0,0-.44.92,4.65,4.65,0,0,0-.14,1.24v3.22H99.08V57.32Z"/><path class="cls-2" d="M106.87,57.32v1h-1.44v4.49a1.09,1.09,0,0,0,0,.34.29.29,0,0,0,.13.19.54.54,0,0,0,.27.09,2.86,2.86,0,0,0,.46,0h.54v1.05H106a4.46,4.46,0,0,1-.79-.07,1.17,1.17,0,0,1-.53-.23,1.06,1.06,0,0,1-.3-.47,2.65,2.65,0,0,1-.1-.82v-4.6H103v-1h1.23V55.15h1.19v2.17Z"/><path class="cls-2" d="M117.28,55.92a2.83,2.83,0,0,0-1.7-.48,3.75,3.75,0,0,0-.82.09,1.9,1.9,0,0,0-.72.28,1.49,1.49,0,0,0-.51.52,1.68,1.68,0,0,0-.19.82,1,1,0,0,0,.28.75,2,2,0,0,0,.72.47,6.62,6.62,0,0,0,1,.3c.38.08.77.16,1.17.26a11.22,11.22,0,0,1,1.17.33,3.54,3.54,0,0,1,1,.51,2.37,2.37,0,0,1,.73.81,2.86,2.86,0,0,1-.09,2.6,3,3,0,0,1-.91.92,4,4,0,0,1-1.26.52,5.91,5.91,0,0,1-1.38.16,5.75,5.75,0,0,1-1.58-.21,3.86,3.86,0,0,1-1.32-.64,3,3,0,0,1-.9-1.09,3.49,3.49,0,0,1-.33-1.57H113a2.27,2.27,0,0,0,.25,1.08,2.32,2.32,0,0,0,.64.75,2.65,2.65,0,0,0,.93.43,4,4,0,0,0,1.1.14,4.56,4.56,0,0,0,.9-.08,2.75,2.75,0,0,0,.82-.29,1.51,1.51,0,0,0,.81-1.45,1.28,1.28,0,0,0-.27-.84,2,2,0,0,0-.73-.52,4.79,4.79,0,0,0-1-.33l-1.17-.26c-.4-.09-.78-.19-1.17-.31a4.19,4.19,0,0,1-1-.46,2.21,2.21,0,0,1-.72-.74,2.09,2.09,0,0,1-.28-1.14,2.59,2.59,0,0,1,.31-1.31,2.76,2.76,0,0,1,.82-.91,3.51,3.51,0,0,1,1.16-.53,5,5,0,0,1,1.34-.18,5.44,5.44,0,0,1,1.43.18,3.28,3.28,0,0,1,1.15.58,2.92,2.92,0,0,1,.79,1,3.63,3.63,0,0,1,.31,1.43h-1.26A2.08,2.08,0,0,0,117.28,55.92Z"/><path class="cls-2" d="M124,65.52a7,7,0,0,1-.42.9,2.33,2.33,0,0,1-.44.59,1.53,1.53,0,0,1-.55.34,2.09,2.09,0,0,1-.69.1l-.42,0a2.73,2.73,0,0,1-.41-.1V66.24a2.22,2.22,0,0,0,.36.11,1.16,1.16,0,0,0,.34.05,1,1,0,0,0,.61-.17,1.06,1.06,0,0,0,.37-.5l.49-1.22-2.87-7.19h1.34l2.12,5.92h0l2-5.92h1.26Z"/><path class="cls-2" d="M129.06,62.94a1.24,1.24,0,0,0,.45.43,1.72,1.72,0,0,0,.61.23,3.35,3.35,0,0,0,.71.07,4.08,4.08,0,0,0,.59,0,2.42,2.42,0,0,0,.56-.15,1.1,1.1,0,0,0,.43-.33.9.9,0,0,0,.17-.55.79.79,0,0,0-.35-.7,3.11,3.11,0,0,0-.88-.39,10.7,10.7,0,0,0-1.14-.26,6.33,6.33,0,0,1-1.14-.34,2.4,2.4,0,0,1-.87-.61,1.55,1.55,0,0,1-.35-1.09,1.75,1.75,0,0,1,.24-.94,2,2,0,0,1,.63-.64,3.07,3.07,0,0,1,.87-.36,4,4,0,0,1,1-.12,5.66,5.66,0,0,1,1.13.1,2.69,2.69,0,0,1,.92.37,1.89,1.89,0,0,1,.64.7,2.65,2.65,0,0,1,.28,1.1h-1.19a1.11,1.11,0,0,0-.19-.58,1.06,1.06,0,0,0-.39-.37,1.58,1.58,0,0,0-.52-.21,2.86,2.86,0,0,0-.58-.06,3.27,3.27,0,0,0-.54,0,1.94,1.94,0,0,0-.5.15.92.92,0,0,0-.36.28.67.67,0,0,0-.14.45.66.66,0,0,0,.21.51,1.71,1.71,0,0,0,.56.34,4.46,4.46,0,0,0,.75.22l.84.19c.3.07.59.15.88.24a2.91,2.91,0,0,1,.75.37,2,2,0,0,1,.54.58,1.8,1.8,0,0,1,.2.87,1.94,1.94,0,0,1-.28,1.09,2,2,0,0,1-.71.7,2.86,2.86,0,0,1-1,.37,6,6,0,0,1-1.1.11,4.77,4.77,0,0,1-1.15-.13,2.81,2.81,0,0,1-1-.41,2.11,2.11,0,0,1-.67-.75,2.67,2.67,0,0,1-.28-1.15h1.19A1.35,1.35,0,0,0,129.06,62.94Z"/><path class="cls-2" d="M138.25,57.32v1h-1.44v4.49a1.58,1.58,0,0,0,0,.34.33.33,0,0,0,.13.19.55.55,0,0,0,.28.09,2.72,2.72,0,0,0,.45,0h.55v1.05h-.91a4.37,4.37,0,0,1-.79-.07,1.13,1.13,0,0,1-.53-.23,1,1,0,0,1-.31-.47,3,3,0,0,1-.09-.82v-4.6h-1.24v-1h1.24V55.15h1.19v2.17Z"/><path class="cls-2" d="M144.69,64.09a3.29,3.29,0,0,1-2.05.62,3.62,3.62,0,0,1-1.5-.28,3,3,0,0,1-1.07-.78,3.28,3.28,0,0,1-.65-1.21,5.62,5.62,0,0,1-.25-1.52,4.61,4.61,0,0,1,.25-1.52,3.84,3.84,0,0,1,.71-1.19,3.25,3.25,0,0,1,1.08-.78,3.21,3.21,0,0,1,1.36-.28,3,3,0,0,1,1.61.4,3.17,3.17,0,0,1,1,1,4,4,0,0,1,.53,1.35,5.57,5.57,0,0,1,.12,1.38h-5.42a3,3,0,0,0,.11.91A2.11,2.11,0,0,0,141,63a2,2,0,0,0,.71.53,2.49,2.49,0,0,0,1,.19,2,2,0,0,0,1.23-.35,1.62,1.62,0,0,0,.64-1.06h1.18A2.9,2.9,0,0,1,144.69,64.09Zm-.29-4.64a2.15,2.15,0,0,0-.43-.66,2.23,2.23,0,0,0-.65-.43,2,2,0,0,0-.82-.16,2,2,0,0,0-.83.16,2.08,2.08,0,0,0-.64.44,2.28,2.28,0,0,0-.6,1.44h4.16A2.35,2.35,0,0,0,144.4,59.45Z"/><path class="cls-2" d="M148.2,57.32v1.06h0a2.83,2.83,0,0,1,3.56-1,1.58,1.58,0,0,1,.77,1,2.54,2.54,0,0,1,1-.91,2.72,2.72,0,0,1,1.3-.32,3.73,3.73,0,0,1,1,.12,2.07,2.07,0,0,1,.76.37,1.7,1.7,0,0,1,.49.65,2.53,2.53,0,0,1,.17,1v5.31H156V59.81a4.23,4.23,0,0,0,0-.63,1.31,1.31,0,0,0-.21-.51,1,1,0,0,0-.43-.34,1.61,1.61,0,0,0-.71-.13,1.87,1.87,0,0,0-1.38.5,1.82,1.82,0,0,0-.51,1.35v4.51h-1.19V59.81a3.16,3.16,0,0,0-.06-.64,1.43,1.43,0,0,0-.22-.52,1,1,0,0,0-.41-.33,1.61,1.61,0,0,0-.67-.12,1.8,1.8,0,0,0-.89.21,2.28,2.28,0,0,0-.6.5,2.15,2.15,0,0,0-.33.61,1.78,1.78,0,0,0-.11.53v4.51h-1.19V57.32Z"/></g></g></g></g></svg>